<svg width="24" height="24" viewBox="0 0 24 24" fill="none" xmlns="http://www.w3.org/2000/svg">
<path d="M21 7.337H17.07L17.442 3.065C17.478 2.653 17.172 2.29 16.76 2.253C16.343 2.223 15.984 2.523 15.948 2.936L15.565 7.336H9.245L9.615 3.066C9.652 2.653 9.345 2.29 8.935 2.253C8.515 2.223 8.158 2.523 8.122 2.936L7.74 7.336H3.782C3.368 7.336 3.032 7.673 3.032 8.086C3.032 8.499 3.368 8.836 3.782 8.836H7.61L7.06 15.163H3C2.586 15.163 2.25 15.499 2.25 15.913C2.25 16.327 2.586 16.663 3 16.663H6.93L6.558 20.935C6.522 21.347 6.828 21.71 7.24 21.747L7.306 21.75C7.691 21.75 8.018 21.455 8.052 21.064L8.435 16.664H14.755L14.385 20.934C14.349 21.347 14.655 21.71 15.067 21.747L15.133 21.75C15.518 21.75 15.845 21.455 15.879 21.064L16.261 16.664H20.218C20.631 16.664 20.968 16.327 20.968 15.914C20.968 15.501 20.631 15.164 20.218 15.164H16.39L16.94 8.837H21C21.414 8.837 21.75 8.501 21.75 8.087C21.75 7.673 21.414 7.337 21 7.337ZM14.885 15.163H8.565L9.115 8.837H15.435L14.885 15.163Z" fill="#D9D9D9"/>
</svg>
