<svg width="24" height="24" viewBox="0 0 24 24" fill="none" xmlns="http://www.w3.org/2000/svg">
<path d="M20.5849 9.468C21.2449 9.468 21.7849 8.93 21.7849 8.268C21.7849 7.606 21.2449 7.068 20.5849 7.068H17.3649L17.6749 3.521C17.7019 3.203 17.6049 2.891 17.3979 2.646C17.1919 2.401 16.9029 2.25 16.5759 2.221C15.9259 2.186 15.3409 2.653 15.2829 3.314L14.9569 7.068H9.89994L10.2079 3.523C10.2679 2.865 9.77794 2.281 9.11094 2.221C8.44594 2.171 7.87594 2.651 7.81794 3.313L7.49294 7.067H4.16294C3.49994 7.067 2.96294 7.605 2.96294 8.267C2.96294 8.929 3.50094 9.467 4.16294 9.467H7.28494L6.84494 14.531H3.41594C2.75394 14.531 2.21594 15.071 2.21594 15.731C2.21594 16.391 2.75394 16.933 3.41594 16.933H6.63594L6.32594 20.481C6.26894 21.138 6.75794 21.721 7.41594 21.781L7.52194 21.786C8.14794 21.786 8.66194 21.314 8.71694 20.688L9.04394 16.935H14.0999L13.7919 20.479C13.7319 21.137 14.2219 21.721 14.8819 21.781L14.9879 21.786C15.6049 21.786 16.1299 21.304 16.1829 20.688L16.5079 16.935H19.8379C20.4979 16.935 21.0379 16.395 21.0379 15.735C21.0379 15.075 20.4979 14.533 19.8379 14.533H16.7159L17.1559 9.469H20.5859L20.5849 9.468ZM14.7469 9.468L14.3069 14.531H9.25294L9.69294 9.469H14.7479L14.7469 9.468Z" fill="#D9D9D9"/>
</svg>
