<svg width="24" height="24" viewBox="0 0 24 24" fill="none" xmlns="http://www.w3.org/2000/svg">
<path d="M17 13.5C17.8284 13.5 18.5 12.8284 18.5 12C18.5 11.1716 17.8284 10.5 17 10.5C16.1716 10.5 15.5 11.1716 15.5 12C15.5 12.8284 16.1716 13.5 17 13.5Z" fill="#D9D9D9"/>
<path d="M12 13.5C12.8284 13.5 13.5 12.8284 13.5 12C13.5 11.1716 12.8284 10.5 12 10.5C11.1716 10.5 10.5 11.1716 10.5 12C10.5 12.8284 11.1716 13.5 12 13.5Z" fill="#D9D9D9"/>
<path d="M7 13.5C7.82843 13.5 8.5 12.8284 8.5 12C8.5 11.1716 7.82843 10.5 7 10.5C6.17157 10.5 5.5 11.1716 5.5 12C5.5 12.8284 6.17157 13.5 7 13.5Z" fill="#D9D9D9"/>
<path d="M12 22.75C6.072 22.75 1.25 17.928 1.25 12C1.25 6.072 6.072 1.25 12 1.25C17.928 1.25 22.75 6.072 22.75 12C22.75 17.928 17.928 22.75 12 22.75ZM12 2.75C6.9 2.75 2.75 6.9 2.75 12C2.75 17.1 6.9 21.25 12 21.25C17.1 21.25 21.25 17.1 21.25 12C21.25 6.9 17.1 2.75 12 2.75Z" fill="#D9D9D9"/>
</svg>
