<svg width="24" height="24" viewBox="0 0 24 24" fill="none" xmlns="http://www.w3.org/2000/svg">
<path d="M19.75 7.31H17.87C17.68 4.23 15.124 1.784 12 1.784C8.876 1.784 6.32 4.232 6.13 7.31H4.25C3.01 7.31 2 8.317 2 9.56V19.79C2 21.03 3.01 22.04 4.25 22.04H19.75C20.99 22.04 22 21.03 22 19.79V9.56C22 8.318 20.99 7.31 19.75 7.31ZM12.75 15.687V17.083C12.75 17.497 12.414 17.833 12 17.833C11.586 17.833 11.25 17.497 11.25 17.083V15.687C10.486 15.387 9.943 14.647 9.943 13.777C9.943 12.64 10.863 11.719 12 11.719C13.136 11.719 14.057 12.639 14.057 13.775C14.057 14.645 13.514 15.385 12.75 15.685V15.687ZM7.648 7.31C7.838 5.06 9.705 3.284 12 3.284C14.295 3.284 16.163 5.061 16.352 7.307H7.648V7.31Z" fill="#D9D9D9"/>
</svg>
