<svg width="24" height="24" viewBox="0 0 24 24" fill="none" xmlns="http://www.w3.org/2000/svg">
<path d="M12 11.816C13.355 11.816 14.872 11.666 15.84 10.56C16.654 9.63 16.918 8.192 16.646 6.168C16.266 3.343 14.529 1.656 12 1.656C9.47103 1.656 7.73403 3.343 7.35403 6.17C7.08203 8.192 7.34603 9.63 8.16003 10.56C9.12803 11.667 10.645 11.816 12 11.816ZM8.84003 6.368C9.00203 5.168 9.62703 3.156 12 3.156C14.373 3.156 14.998 5.169 15.16 6.368C15.367 7.918 15.217 8.995 14.71 9.573C14.255 10.093 13.444 10.316 12 10.316C10.556 10.316 9.74503 10.093 9.29003 9.573C8.78303 8.995 8.63303 7.917 8.84003 6.368ZM20.28 19.236C19.403 15.71 15.998 13.246 12 13.246C8.00203 13.246 4.59703 15.71 3.72003 19.236C3.54803 19.928 3.69203 20.636 4.11503 21.176C4.52303 21.696 5.15503 21.996 5.84803 21.996H18.152C18.845 21.996 19.477 21.696 19.885 21.176C20.309 20.636 20.452 19.929 20.279 19.236H20.28ZM18.704 20.252C18.578 20.412 18.388 20.498 18.152 20.498H5.84803C5.61303 20.498 5.42203 20.413 5.29603 20.252C5.15903 20.078 5.11603 19.84 5.17603 19.598C5.88603 16.743 8.69303 14.748 12 14.748C15.307 14.748 18.114 16.742 18.824 19.598C18.884 19.84 18.841 20.078 18.704 20.252Z" fill="#D9D9D9"/>
</svg>
