<svg width="42" height="42" viewBox="0 0 42 42" fill="none" xmlns="http://www.w3.org/2000/svg">
<rect width="42" height="42" rx="21" fill="#202327"/>
<path d="M28.1475 27.3525L25.4025 24.6075C26.3963 23.43 27 21.9105 27 20.25C27 16.5225 23.9775 13.5 20.25 13.5C16.5225 13.5 13.5 16.5225 13.5 20.25C13.5 23.9775 16.5225 27 20.25 27C21.9113 27 23.43 26.397 24.606 25.4025L27.351 28.1475C27.4613 28.257 27.606 28.3125 27.7485 28.3125C27.891 28.3125 28.0373 28.2578 28.146 28.1475C28.3673 27.9278 28.3673 27.5722 28.1475 27.3525ZM14.625 20.25C14.625 17.1487 17.1488 14.625 20.25 14.625C23.3513 14.625 25.875 17.1487 25.875 20.25C25.875 23.3512 23.3513 25.875 20.25 25.875C17.1488 25.875 14.625 23.3512 14.625 20.25Z" fill="#6E767D"/>
</svg>
